<svg xmlns="http://www.w3.org/2000/svg" viewBox="0 0 28 28" fill="none">
    <g>
        <path fill="#1977F3" d="M13.8333 26.6683C20.921 26.6683 26.6667 20.9226 26.6667 13.8349C26.6667 6.74727 20.921 1.00159 13.8333 1.00159C6.74568 1.00159 1 6.74727 1 13.8349C1 20.9226 6.74568 26.6683 13.8333 26.6683Z" />
        <path fill="white" d="M18.8287 17.5457L19.3971 13.8352H15.8382V11.4277C15.8382 10.4134 16.3345 9.42266 17.9299 9.42266H19.5487V6.26441C19.5487 6.26441 18.0797 6.01355 16.6756 6.01355C13.7448 6.01355 11.8282 7.78939 11.8282 11.0072V13.8352H8.56885V17.5457H11.8282V26.5133C12.4815 26.6162 13.151 26.6685 13.8332 26.6685C14.5154 26.6685 15.1849 26.6144 15.8382 26.5133V17.5457H18.8287Z" />
    </g>
</svg>
