<?xml version="1.0" encoding="UTF-8" standalone="no"?>
<svg xmlns="http://www.w3.org/2000/svg" viewBox="0 0 35 35" fill="none">
    <g clip-path="url(#clip0_37_796)">
        <rect width="35" height="35" rx="17.5" fill="#303030"/>
        <path d="M17.5057 0C10.1996 0 8.06287 0.0075391 7.64753 0.0420036C6.14819 0.166668 5.21522 0.402803 4.19879 0.909C3.41548 1.29807 2.79771 1.74907 2.18802 2.38128C1.07765 3.53422 0.404697 4.95265 0.161089 6.63872C0.0426501 7.45725 0.00819504 7.62418 0.00119636 11.8052C-0.00149545 13.1988 0.00119636 15.033 0.00119636 17.4931C0.00119636 24.7953 0.00927176 26.9305 0.0442652 27.3451C0.165396 28.8045 0.394199 29.7226 0.878724 30.7269C1.8047 32.6494 3.57322 34.0926 5.65667 34.6311C6.37807 34.8169 7.17485 34.9192 8.19773 34.9677C8.63111 34.9865 13.0484 35 17.4683 35C21.8882 35 26.3082 34.9946 26.7308 34.9731C27.9152 34.9173 28.6029 34.825 29.3634 34.6284C31.4603 34.0872 33.1965 32.6656 34.1413 30.7162C34.6164 29.7361 34.8573 28.7829 34.9664 27.3998C34.99 27.0982 35 22.2902 35 17.4886C35 12.6862 34.9892 7.88698 34.9655 7.58541C34.8552 6.17991 34.6143 5.23483 34.1238 4.2359C33.7214 3.41817 33.2746 2.80751 32.6258 2.18311C31.4681 1.07701 30.0522 0.40388 28.365 0.160475C27.5475 0.0422728 27.3846 0.00726985 23.2016 0H17.5057Z" fill="url(#paint0_radial_37_796)"/>
        <path d="M17.5057 0C10.1996 0 8.06287 0.0075391 7.64753 0.0420036C6.14819 0.166668 5.21522 0.402803 4.19879 0.909C3.41548 1.29807 2.79771 1.74907 2.18802 2.38128C1.07765 3.53422 0.404697 4.95265 0.161089 6.63872C0.0426501 7.45725 0.00819504 7.62418 0.00119636 11.8052C-0.00149545 13.1988 0.00119636 15.033 0.00119636 17.4931C0.00119636 24.7953 0.00927176 26.9305 0.0442652 27.3451C0.165396 28.8045 0.394199 29.7226 0.878724 30.7269C1.8047 32.6494 3.57322 34.0926 5.65667 34.6311C6.37807 34.8169 7.17485 34.9192 8.19773 34.9677C8.63111 34.9865 13.0484 35 17.4683 35C21.8882 35 26.3082 34.9946 26.7308 34.9731C27.9152 34.9173 28.6029 34.825 29.3634 34.6284C31.4603 34.0872 33.1965 32.6656 34.1413 30.7162C34.6164 29.7361 34.8573 28.7829 34.9664 27.3998C34.99 27.0982 35 22.2902 35 17.4886C35 12.6862 34.9892 7.88697 34.9655 7.58541C34.8552 6.17991 34.6143 5.23483 34.1238 4.2359C33.7214 3.41817 33.2746 2.80751 32.6258 2.18311C31.4681 1.07701 30.0522 0.40388 28.365 0.160475C27.5475 0.0422728 27.3846 0.00726985 23.2016 0H17.5057Z" fill="url(#paint1_radial_37_796)"/>
        <path d="M17.5736 5.52632C14.3217 5.52632 13.9136 5.54054 12.6364 5.59866C11.3616 5.65703 10.4916 5.85884 9.73022 6.15494C8.94269 6.46077 8.27465 6.86987 7.60911 7.53566C6.94306 8.20119 6.53396 8.86922 6.22713 9.65649C5.93028 10.4181 5.72822 11.2884 5.67085 12.5626C5.61372 13.8398 5.59875 14.2482 5.59875 17.5C5.59875 20.7519 5.61322 21.1587 5.6711 22.4359C5.72972 23.7106 5.93153 24.5807 6.22738 25.342C6.53346 26.1295 6.94257 26.7976 7.60836 27.4631C8.27365 28.1291 8.94169 28.5392 9.72872 28.8451C10.4906 29.1412 11.3609 29.343 12.6354 29.4013C13.9126 29.4595 14.3204 29.4737 17.5721 29.4737C20.8242 29.4737 21.2311 29.4595 22.5083 29.4013C23.783 29.343 24.6541 29.1412 25.4159 28.8451C26.2032 28.5392 26.8702 28.1291 27.5355 27.4631C28.2016 26.7976 28.6107 26.1295 28.9175 25.3423C29.2119 24.5807 29.4139 23.7104 29.4738 22.4362C29.5312 21.159 29.5461 20.7519 29.5461 17.5C29.5461 14.2482 29.5312 13.84 29.4738 12.5629C29.4139 11.2882 29.2119 10.4181 28.9175 9.65674C28.6107 8.86922 28.2016 8.20119 27.5355 7.53566C26.8695 6.86962 26.2034 6.46052 25.4152 6.15494C24.6518 5.85884 23.7812 5.65703 22.5065 5.59866C21.2293 5.54054 20.8227 5.52632 17.5698 5.52632H17.5736ZM16.4994 7.68408C16.8182 7.68358 17.1739 7.68408 17.5736 7.68408C20.7706 7.68408 21.1495 7.69555 22.412 7.75293C23.5794 7.80631 24.213 8.00138 24.6351 8.16527C25.1939 8.38229 25.5923 8.64172 26.0111 9.0608C26.4302 9.47988 26.6896 9.879 26.9071 10.4378C27.071 10.8593 27.2664 11.493 27.3195 12.6604C27.3769 13.9226 27.3893 14.3018 27.3893 17.4973C27.3893 20.6927 27.3769 21.0719 27.3195 22.3341C27.2661 23.5016 27.071 24.1352 26.9071 24.5567C26.6901 25.1155 26.4302 25.5134 26.0111 25.9322C25.592 26.3513 25.1941 26.6107 24.6351 26.8278C24.2135 26.9924 23.5794 27.187 22.412 27.2403C21.1497 27.2977 20.7706 27.3102 17.5736 27.3102C14.3763 27.3102 13.9974 27.2977 12.7351 27.2403C11.5677 27.1865 10.9341 26.9914 10.5118 26.8275C9.95298 26.6105 9.55385 26.3511 9.13477 25.932C8.71569 25.5129 8.45625 25.1148 8.23873 24.5557C8.07484 24.1342 7.87952 23.5006 7.82638 22.3331C7.76901 21.0709 7.75753 20.6917 7.75753 17.4943C7.75753 14.2968 7.76901 13.9196 7.82638 12.6574C7.87977 11.49 8.07484 10.8564 8.23873 10.4343C8.45576 9.87551 8.71569 9.47639 9.13477 9.05731C9.55385 8.63823 9.95298 8.3788 10.5118 8.16128C10.9338 7.99664 11.5677 7.80207 12.7351 7.74844C13.8397 7.69855 14.2678 7.68358 16.4994 7.68109V7.68408ZM23.9651 9.67221C23.1718 9.67221 22.5282 10.315 22.5282 11.1086C22.5282 11.9018 23.1718 12.5454 23.9651 12.5454C24.7583 12.5454 25.4019 11.9018 25.4019 11.1086C25.4019 10.3153 24.7583 9.67221 23.9651 9.67221ZM17.5736 11.351C14.1777 11.351 11.4245 14.1042 11.4245 17.5C11.4245 20.8958 14.1777 23.6477 17.5736 23.6477C20.9694 23.6477 23.7216 20.8958 23.7216 17.5C23.7216 14.1042 20.9694 11.351 17.5736 11.351ZM17.5736 13.5088C19.7777 13.5088 21.5648 15.2956 21.5648 17.5C21.5648 19.7042 19.7777 21.4912 17.5736 21.4912C15.3691 21.4912 13.5823 19.7042 13.5823 17.5C13.5823 15.2956 15.3691 13.5088 17.5736 13.5088Z" fill="white"/>
    </g>
    <defs>
        <radialGradient id="paint0_radial_37_796" cx="0" cy="0" r="1" gradientUnits="userSpaceOnUse" gradientTransform="translate(9.29692 37.6957) rotate(-90) scale(34.6876 32.2622)">
            <stop stop-color="#FFDD55"/>
            <stop offset="0.1" stop-color="#FFDD55"/>
            <stop offset="0.5" stop-color="#FF543E"/>
            <stop offset="1" stop-color="#C837AB"/>
        </radialGradient>
        <radialGradient id="paint1_radial_37_796" cx="0" cy="0" r="1" gradientUnits="userSpaceOnUse" gradientTransform="translate(-5.86269 2.52134) rotate(78.6806) scale(15.5055 63.9143)">
            <stop stop-color="#3771C8"/>
            <stop offset="0.128" stop-color="#3771C8"/>
            <stop offset="1" stop-color="#6600FF" stop-opacity="0"/>
        </radialGradient>
        <clipPath id="clip0_37_796">
            <rect width="35" height="35" rx="17.5" fill="white"/>
        </clipPath>
    </defs>
</svg>
