<svg xmlns="http://www.w3.org/2000/svg" viewBox="0 0 200 200">
  <circle cx="100" cy="100" r="100" fill="#e1b2a8"/>
  <g fill="#fff">
    <path d="M80.498 49.447c-.638-1.65-2.288-2.714-4.363-2.82-.425 0-.798-.053-1.17-.053-2.288 0-4.203.479-5.906 1.383-.372.266-.798.532-1.277.798a31.523 31.523 0 0 0-2.554 1.862s-.053.054-.106.054c-.053-.054-.053-.213-.106-.639-.213-1.543-1.064-2.713-2.607-3.67-.266-.107-.532-.214-.798-.267a9.764 9.764 0 0 0-2.501-.32c-.958 0-1.862.16-2.66.426l-.213.107c-1.277.425-1.809.585-5.16 2.82h-.054c0-.054 0-.054-.053-.054-.16-.053 0-.904.053-1.33 0-.266.053-.478.053-.585a1.165 1.165 0 0 0-.426-.745c-.319-.266-.691-.479-1.064-.691-.212-.107-.372-.107-.585.053l-1.277.798c-.319.213-.585.372-.904.585-1.011.692-2.128 1.224-3.352 1.703-2.182.904-5.055 2.021-7.98 2.926-.267.053-.533.16-.799.213-1.064.319-2.181.638-3.192 1.117-2.128.958-3.512 2.447-4.15 4.47-.426 1.276-.745 2.66-.373 4.15.426 1.755 1.224 3.032 2.448 3.883a7.926 7.926 0 0 0 3.299 1.437.675.675 0 0 0 .319.053c.425 0 .585-.213.691-.692.16-.585.266-1.17.373-1.702l.053-.16c.053-.372 0-.479-.372-.532-1.756-.426-3.193-1.756-3.618-3.352-.32-1.33.106-2.607 1.277-3.565.319-.266.638-.478.904-.585 1.756-.851 3.299-1.49 4.735-1.968a47.281 47.281 0 0 0 4.576-1.703c.692-.266 4.788-1.756 5.48-1.756h.053c0 .426-2.234 5.587-4.15 10.11a882.165 882.165 0 0 0-2.554 6.011c-2.075 4.948-4.416 10.641-5.373 12.77-.373.744-.639 1.542-.905 2.34 0 .054-.053.16 0 .266.053.054.107.054.16.107l.213.053c.372.106.745.213 1.17.213h.479c.266-.053.585-.053.851-.053.32.053.532-.107.692-.426.053-.106.106-.16.106-.266l.16-.32a46.016 46.016 0 0 1 1.436-3.777c.852-1.809 3.459-8.247 5.161-12.556.798-1.969 1.384-3.405 1.49-3.618l.798-1.756 1.437-3.192c1.117-2.341 2.873-4.363 4.948-5.693l.319-.266c2.075-1.33 3.352-2.181 6.118-2.075.426 0 .745.106 1.065.373.425.372.744.85.798 1.383.106.638.106 1.224-.054 1.756-.319 1.49-.85 3.085-1.702 4.948a266.952 266.952 0 0 0-5.8 13.886c-.957 2.394-2.021 4.788-2.979 6.917-.266.638-.532 1.276-.745 1.862-.319.798-.638 1.65-1.01 2.394-.107.213-.107.32-.054.426.053.053.16.106.373.106h1.489c.266 0 .48 0 .639-.053.425 0 .745-.213.957-.585.266-.426.426-.799.586-1.171l.053-.213c.638-1.65 1.277-3.405 2.128-5.001.106-.16.16-.32.213-.479l.053-.106c.106-.32.213-.586.32-.852.212-.532.372-1.064.638-1.596.585-1.223 1.117-2.447 1.65-3.67.265-.692.584-1.437.904-2.129.16-.266.319-.692.532-1.224.85-2.128 2.5-6.118 4.469-9.31 1.277-2.075 2.554-3.246 4.15-4.416.957-.745 2.128-1.33 3.405-1.81.851-.319 1.756-.478 2.447-.478h.107c.691 0 1.223 0 1.809.479.691.478.532 1.383.425 1.755-.266 1.118-.638 2.395-1.17 3.565-.798 1.862-2.98 6.385-4.576 9.683-1.01 2.128-1.756 3.778-1.968 4.203-.905 2.075-1.81 4.31-2.82 6.917-.426 1.17-.692 2.394-.692 3.671 0 .053.053.16.053.213 0 .213 0 .479.053.745.16 1.117.692 2.181 1.597 3.139.106.106.266.32.478.479.16.106.32.16.48.16a.86.86 0 0 0 .478-.16c.532-.426 1.17-.958 1.543-1.65.16-.212.106-.425-.106-.585-.32-.32-.48-.692-.639-1.17-.638-1.756-.372-3.14.373-5.002.745-2.021 1.49-4.043 2.5-6.012.639-1.223 1.224-2.554 1.756-3.83.638-1.437 1.277-2.927 2.022-4.31l.585-1.117c.851-1.596 1.756-3.246 2.554-4.895l.16-.426c.957-1.968 2.021-4.203 1.223-6.331zm25.964 20.324c-.532-.426-.958-.479-1.383-.213-.32.266-.639.745-1.011 1.33l-.16.213c-.213.32-.479.692-.692 1.064-.212.32-.425.585-.585.852-.32.425-.745 1.01-1.117 1.542l-.32.373c-.159.213-.319.372-.425.585a25.028 25.028 0 0 1-3.192 3.512c-.48.425-1.011.691-1.49.904-.266.107-.532.16-.745.16-1.064 0-1.65-1.064-1.65-2.075v-.639c0-1.064.267-2.128.48-2.82l.798-2.394a17.42 17.42 0 0 0 .798-2.34c.425-1.33.851-2.661 1.436-3.938a57.156 57.156 0 0 0 2.022-4.575c.16-.426.106-.586-.16-.852-.478-.372-.957-.532-1.596-.479-.319 0-.585.16-.691.373-.107.213-.266.425-.373.638-.16.213-.266.373-.372.586v.053h-.053c-.054.053-.107.16-.213.16a.321.321 0 0 1-.213-.267c-.053-.266-.053-.478-.16-.691-.479-1.543-1.596-2.66-3.245-3.246a7.664 7.664 0 0 0-2.714-.479c-1.01 0-2.075.213-3.192.586-3.405 1.17-5.8 4.043-7.236 6.118-1.596 2.182-2.82 4.682-3.458 7.183-.479 2.022-.638 4.043-.426 5.959.48 3.83 3.246 6.384 6.97 6.384.585 0 1.17-.053 1.81-.213 1.861-.372 3.67-1.383 5.745-3.032.107-.107.266-.213.426-.373.106-.106.266-.213.425-.372.054 0 .054.053.054.053a3 3 0 0 0 .213.639c.744 2.021 2.287 3.139 4.256 3.139.266 0 .532 0 .798-.054a5.974 5.974 0 0 0 2.128-.744c1.117-.586 1.756-1.33 2.66-2.235 1.17-1.17 2.235-2.447 3.352-3.99l.32-.48c.478-.638.904-1.223 1.276-1.915.054-.106.213-.266.32-.478.425-.692 1.01-1.597 1.117-2.395.053-.479-.107-.904-.532-1.117zM93.32 66.419c-.053 1.49-.479 2.926-1.01 4.257-.799 2.074-1.65 3.564-2.608 4.894-1.33 1.862-3.032 3.193-5.16 4.15-.798.373-1.543.426-2.395.426-1.17 0-2.128-.373-2.82-1.117-.904-.958-1.383-2.554-1.276-4.204.266-4.788 3.032-10.162 6.65-13.035 1.117-.904 2.5-1.543 3.83-1.755.214 0 .48-.054.693-.054 1.649 0 2.873.905 3.511 2.554.426 1.118.585 2.448.585 3.884z" />
    <path d="M132.372 69.718c-.585-.373-1.01-.426-1.383-.16-.372.213-.692.692-1.064 1.33l-.16.16c-.212.372-.478.745-.691 1.117a7.613 7.613 0 0 0-.586.798c-.266.48-.744 1.064-1.117 1.596l-.32.373c-.159.213-.318.372-.425.585-.798.958-1.596 1.862-2.5 2.714-.586.532-1.224.957-1.916 1.436l-.957.639c-.16.053-.266.106-.798.425.053-.479.478-1.596.638-2.075a60.65 60.65 0 0 0 1.277-3.67l.266-.693c.106-.425.638-1.968 1.17-3.617.639-1.969 1.33-3.99 1.437-4.363.372-1.118.745-2.182 1.01-3.299.16-.479.267-.904.427-1.33.16-.532.319-1.01.478-1.543 0-.16.054-.266.107-.426.16-.532.266-1.064-.107-1.436-.319-.32-1.17-.32-1.755-.32l-.054-.053c-.266 0-.798.107-.957.373-.266.426-.852 2.128-1.17 3.192-1.49-2.873-3.46-3.565-6.013-3.777h-.479c-2.82 0-5.746 1.649-7.395 3.245-.905.905-2.075 2.341-2.767 3.671-1.596 2.98-2.288 5.533-2.394 8.726-.16 3.032.692 5.693 2.288 7.395 1.17 1.224 2.766 1.862 4.522 1.862.798 0 1.596-.16 2.5-.372 1.597-.479 2.342-.958 3.566-1.862-.16.585-.852 2.128-1.118 2.82l-.053.053a1.111 1.111 0 0 1-.426.532c-.532.32-4.628 2.766-6.065 3.618-2.394 1.383-4.15 2.873-5.374 4.629-.957 1.383-1.543 3.139-1.383 4.522.107 1.436 1.117 2.66 2.607 3.192.585.213 1.17.32 1.756.32 1.756 0 3.511-1.011 5.267-2.98 1.064-1.277 1.81-2.713 2.394-3.937.532-1.17.905-2.022 1.384-3.192l.16-.373c.478-1.277 1.063-2.713 2.021-3.724.106-.107.905-.692 2.022-1.384.851-.585 1.915-1.33 2.394-1.596a18.763 18.763 0 0 0 3.83-2.82c1.224-1.17 2.289-2.447 3.353-3.883.106-.16.212-.32.372-.532.426-.586.905-1.224 1.224-1.863.106-.16.213-.319.319-.532.479-.638 1.064-1.543 1.117-2.34.053-.533-.106-.905-.479-1.171zm-18.887 18.834c-.053 0-.053.053-.053.107a25.235 25.235 0 0 1-3.99 6.81c-.426.585-.958.904-1.544 1.17-.319.107-.585.16-.798.16-.479 0-.798-.053-1.01-.266-.16-.213-.267-.532-.267-1.011.107-1.383 1.384-3.033 2.607-3.884.48-.372.905-.692 1.33-1.01 1.065-.799 2.129-1.597 3.3-2.235.052-.054.106-.054.106-.107.16-.053.266-.16.372-.106.053.053 0 .16-.053.372zm0-9.843c-1.277.48-1.81.692-3.192.426-1.81-.32-2.874-1.756-2.98-4.15-.213-2.98.372-4.788.639-5.746.585-1.862 1.33-3.352 2.5-4.948 1.277-1.703 3.724-3.458 6.119-3.458.904 0 1.755.213 2.553.638.852.479 1.437 1.277 1.916 2.394.851 2.182-.107 4.842-.851 6.97l-.107.32c-1.224 3.617-3.671 6.437-6.49 7.501z"/>
    <path d="M144.503 70.888c.053-.532-.106-.904-.479-1.17-.585-.373-1.01-.426-1.383-.16-.373.213-.692.692-1.064 1.33l-.107.16c-.266.372-.479.745-.745 1.117-.212.266-.372.532-.585.798-.958 1.543-2.022 3.086-3.245 4.416-.958 1.011-2.022 2.554-3.512 2.341-2.447-.319-1.436-3.777-.958-5.32.213-.585.426-1.224.639-1.862v-.054c.106-.212.16-.425.213-.585.638-1.915 3.298-8.672 3.99-10.215a74.71 74.71 0 0 0 1.383-3.246c.054-.16.054-.319 0-.372 0-.053-.106-.106-.266-.16-.266-.053-.425-.053-.585-.053-.16 0-.32 0-.532-.053-.372-.053-.745-.106-1.01-.106-.533 0-.692.106-.746.212a2.82 2.82 0 0 0-.319.745l-.16.32a115.919 115.919 0 0 0-2.766 6.597l-.426 1.01c-1.064 2.82-2.022 5.48-2.82 8.194-.638 2.128-.904 5.001.639 6.757 1.543 1.756 3.565 1.65 5.374 1.011 1.968-.692 3.617-2.34 4.788-3.937 1.224-1.596 2.288-3.086 3.299-4.842.053-.16.16-.319.319-.532.425-.638 1.01-1.543 1.064-2.34zm-5.8-20.75a2.47 2.47 0 0 0-2.18 2.767 2.508 2.508 0 0 0 2.766 2.182c1.33-.16 2.288-1.437 2.128-2.767-.16-1.383-1.383-2.341-2.713-2.181z"/>
    <path d="M172.648 69.771c-.532-.426-.958-.479-1.383-.213-.32.266-.639.745-1.011 1.33l-.16.213c-.213.32-.479.692-.691 1.064-.213.32-.426.585-.586.852-.319.425-.745 1.01-1.117 1.542l-.32.373c-.159.213-.318.372-.425.585a25.028 25.028 0 0 1-3.192 3.512c-.479.425-1.011.691-1.49.904-.266.107-.532.16-.745.16-1.064 0-1.649-1.064-1.649-2.075v-.639c0-1.064.266-2.128.479-2.82l.798-2.394c.32-.745.585-1.543.798-2.34.426-1.33.851-2.661 1.436-3.938a57.153 57.153 0 0 0 2.022-4.575c.16-.426.107-.586-.16-.852-.478-.372-.957-.532-1.596-.479-.319 0-.585.16-.691.373-.107.213-.266.425-.373.638-.16.213-.266.373-.372.586v.053h-.053c-.053.053-.107.16-.213.16a.321.321 0 0 1-.213-.267c-.053-.266-.053-.478-.16-.691-.478-1.543-1.596-2.66-3.245-3.246a7.664 7.664 0 0 0-2.713-.479c-1.011 0-2.075.213-3.193.586-3.405 1.17-5.799 4.043-7.235 6.118-1.597 2.182-2.82 4.682-3.459 7.183-.479 2.022-.638 4.043-.425 5.959.478 3.83 3.245 6.384 6.97 6.384.585 0 1.17-.053 1.808-.213 1.863-.372 3.671-1.383 5.746-3.032.107-.107.266-.213.426-.373.106-.106.266-.213.426-.372.053 0 .053.053.053.053.053.213.106.426.213.639.745 2.021 2.288 3.139 4.256 3.139.266 0 .532 0 .798-.054a5.974 5.974 0 0 0 2.128-.744c1.118-.586 1.756-1.33 2.66-2.235 1.171-1.17 2.235-2.447 3.352-3.99l.32-.48c.478-.638.904-1.223 1.277-1.915.053-.106.212-.266.319-.478.425-.692 1.01-1.597 1.117-2.395.053-.479-.106-.904-.532-1.117zm-13.141-3.352c-.054 1.49-.48 2.926-1.011 4.257-.798 2.074-1.65 3.564-2.607 4.894-1.33 1.862-3.033 3.193-5.161 4.15-.798.373-1.543.426-2.394.426-1.17 0-2.129-.373-2.82-1.117-.905-.958-1.384-2.554-1.277-4.204.266-4.788 3.032-10.162 6.65-13.035 1.118-.904 2.501-1.543 3.831-1.755.213 0 .479-.054.692-.054 1.65 0 2.873.905 3.511 2.554.426 1.118.586 2.448.586 3.884zm-95.476 61.384c-2.128 3.032-4.416 6.171-6.012 8.087-.319.425-.638.85-.957 1.223-.107.16-.213.266-.32.426-.319.372-.638.851-1.01 1.17-.213.32-.533.373-.852.16l-.638-.479c-.107-.053-.213-.16-.32-.213l-.319-.16c-2.554-1.702-6.012-2.766-9.045-2.021-.904.213-1.809.638-2.5 1.224-1.969 1.543-2.82 3.884-2.341 6.331.372 1.915 2.288 3.671 3.884 4.363a8.872 8.872 0 0 0 3.298.638c.852 0 1.49-.16 2.182-.266 2.288-.585 4.629-2.075 6.331-4.15.16-.266.32-.372.532-.372.16 0 .32.106.532.266.532.372 1.064.904 1.596 1.436A40.883 40.883 0 0 0 66 151.638c2.075 1.224 5.267 2.714 8.832 2.714.213 0 .425-.054.638-.054h.639c2.5-.319 4.469-.691 6.331-2.447.532-.532 1.277-1.17 1.65-1.862.212-.373.265-.692.159-.958-.213-.426-.851-.692-1.437-.904-.212-.054-.425-.16-.638-.213-.106-.053-.213-.107-.32-.107-.106 0-.159 0-.212.054-.16 0-.32.16-.479.372-1.809 2.447-5.214 2.98-8.034 2.607a14.598 14.598 0 0 1-2.075-.479c-4.096-1.33-7.395-4.363-10.534-7.182a52.817 52.817 0 0 0-1.916-1.65c-.212-.213-.266-.532-.16-.745.16-.212.32-.372.48-.585.106-.16.266-.372.425-.532.107-.16.213-.266.32-.426.425-.585.904-1.17 1.33-1.755.372-.48 4.256-5.906 8.566-12.13 0 0 4.841-7.13 9.949-14.473l.053-.106c.372-.532.904-1.277.692-1.809-.107-.32-.48-.532-1.064-.745h-.266c-.213 0-.48.053-.692.053-.053 0-.107.054-.16.054h-.106c-.32.053-.639.106-.958.212-.479.107-.957.213-1.436.213a2.604 2.604 0 0 1-.639.053c-1.49 0-2.713-.212-4.416-.532h-.053c-1.543-.319-3.245-.744-5.427-1.33l-.053-.053c-1.65-.479-4.682-1.436-7.076-1.596l-.32-.053c-.585-.053-1.064-.053-1.49-.053-1.223 0-2.234.212-3.032.532-.958.372-1.702.638-2.288 1.277-2.553 2.5-3.245 6.118-1.649 8.991 1.277 2.288 3.512 3.565 6.385 3.778 1.223.053 2.234 0 3.564-.213h.053c.267-.107.426-.213.48-.426.106-.958.106-1.33.053-2.128-.054-.106-.213-.266-.373-.266-.053 0-.106 0-.213.053h-.16c-.053 0-.106.053-.159.053l-.106.054a21.85 21.85 0 0 1-1.863.106c-.478 0-.957 0-1.33-.053l-.106-.053c-1.33-.266-2.235-.426-3.246-1.437-.585-.638-.957-1.596-.957-2.554 0-1.117.425-2.288 1.224-3.245.744-.905 1.915-1.384 3.511-1.437.106-.053.213-.053.372-.053h.48c1.33 0 2.713.213 4.84.745 2.182.532 3.778.958 4.896 1.33.106 0 .213.053.372.053.32.107.692.16 1.064.32.16 0 .373.053.585.106.107.053.267.053.373.106 1.49.373 2.82.585 4.203.745.213.053.372.053.585.107.426.053.852.106 1.384.212v.054l-.107.053c-.053.106-.106.16-.106.16s-.107.372-10.8 15.641zm-11.28 14.365c-.318.585-1.063 1.223-2.234 2.021-1.33.852-3.298 1.33-4.841.958-.852-.213-1.543-.638-2.022-1.17-.585-.586-.798-1.384-.638-2.182.319-1.649 1.755-2.607 3.405-2.873 2.075-.319 4.31 1.118 5.959 2.235l.212.16c.266.212.32.478.16.85z"/>
    <path d="M87.548 132.006c.053-.532-.107-.905-.48-1.17-.584-.373-1.01-.426-1.382-.16-.373.212-.692.691-1.065 1.33l-.106.16c-.266.372-.479.744-.745 1.117-.213.266-.372.532-.585.798-.958 1.543-2.022 3.086-3.246 4.416-.957 1.01-2.021 2.553-3.511 2.34-2.447-.319-1.437-3.777-.958-5.32.213-.585.426-1.224.639-1.862v-.053c.106-.213.16-.426.213-.585.638-1.916 3.298-8.673 3.99-10.216.32-.691 1.01-2.288 1.383-3.245.053-.16.053-.32 0-.373 0-.053-.106-.106-.266-.16-.266-.052-.425-.052-.585-.052-.16 0-.32 0-.532-.054-.373-.053-.745-.106-1.011-.106-.532 0-.692.106-.745.213a2.86 2.86 0 0 0-.32.745l-.159.319a115.923 115.923 0 0 0-2.766 6.597l-.426 1.011c-1.064 2.82-2.022 5.48-2.82 8.194-.638 2.128-.904 5 .639 6.757 1.543 1.755 3.564 1.649 5.373 1.01 1.969-.691 3.618-2.34 4.789-3.937 1.223-1.596 2.287-3.085 3.298-4.841.054-.16.16-.32.32-.532.425-.639 1.01-1.543 1.064-2.341zm-5.8-20.75a2.47 2.47 0 0 0-2.181 2.767 2.508 2.508 0 0 0 2.767 2.18c1.33-.159 2.287-1.436 2.128-2.766-.16-1.383-1.384-2.34-2.714-2.181z"/>
    <path d="M109.202 130.888c-.532-.425-.958-.478-1.383-.212-.373.266-.692.744-1.065 1.33l-.106.212c-.213.32-.479.692-.745 1.065-.16.319-.372.585-.532.85-.32.426-.745 1.012-1.17 1.544-.107.16-.213.266-.32.372-.106.213-.266.373-.425.585-1.064 1.437-1.969 2.182-3.831 3.352-1.436.958-3.245 1.33-5.001 1.33-.426 0-.851-.053-1.277-.106-1.756-.266-3.192-1.01-4.203-2.235-1.011-1.17-1.49-2.66-1.49-4.469.053-.372.053-.532.426-.532h.69c.16.053.373.053.48.053.69.054 1.33.054 1.968.054h.106c1.756-.054 3.778-.266 5.746-.745l.213-.053c.851-.213 1.543-.532 2.235-.852a8.49 8.49 0 0 0 2.287-1.49c2.395-2.18 3.14-6.33 1.703-9.204-.532-1.01-2.235-3.458-6.757-3.458H95.9c-.798 0-2.448.532-3.246.958-2.022 1.117-2.82 1.809-3.99 3.245-2.98 3.884-4.576 8.885-4.044 13.195 0 .16.054.319.054.532.053.372.16.745.266 1.117.957 4.363 4.362 7.076 8.885 7.13h.213c3.724 0 6.757-1.277 9.576-3.618 1.277-1.065 2.022-2.129 3.033-3.565.106-.16.266-.32.372-.479.426-.638.905-1.224 1.277-1.915a3.71 3.71 0 0 1 .32-.48c.425-.69 1.01-1.595 1.064-2.393.053-.48-.107-.905-.48-1.118zm-18.781-5.746c.585-.851 1.277-1.862 2.181-2.607 1.383-1.064 2.713-1.596 4.256-1.596.266 0 .639 0 .905.053.958.107 1.756.48 2.34 1.118.48.532 1.065 1.543 1.118 2.713.053.532 0 1.01-.106 1.49-.16.798-.48 1.436-1.17 2.128-1.065 1.17-2.501 1.809-4.257 2.128-1.064.16-2.66.426-4.203.426h-.16c-.851 0-1.596-.107-2.394-.16-.213-.106-.32-.16-.373-.213-.106-.106-.106-.212-.106-.372.213-1.596 1.011-3.618 1.969-5.055z"/>
    <path d="M147.775 130.888c-.585-.372-1.01-.425-1.383-.16-.373.214-.692.692-1.064 1.33l-.107.16c-.266.373-.479.745-.745 1.118a6.933 6.933 0 0 0-.532.798c-.319.479-.798 1.064-1.17 1.543l-.32.425c-.106.16-.265.373-.425.532-.638.905-1.33 1.756-2.075 2.448l-.213.266c-1.01.958-2.234 2.181-3.724 2.181-.851 0-1.383-.319-1.65-.957-.319-1.011 0-2.075.267-3.033.053-.213.106-.372.16-.532.212-.745.478-1.437.744-2.128.106-.32.266-.692.372-1.011.32-1.011.745-1.969 1.118-2.926.425-1.065.904-2.129 1.277-3.246.106-.32.213-.585.266-.851.851-2.288 1.65-4.629-.053-6.598-.958-1.17-2.714-1.383-3.938-1.383-.691 0-1.383.053-2.075.213-2.128.426-3.83 1.277-5.799 2.926-.106.107-.213.16-.32.266v.053h-.106c-.106 0-.106-.106-.106-.319l-.053-.16c0-.212-.053-1.01-.585-1.808-.32-.586-.852-.958-1.49-1.277-.692-.32-1.437-.48-2.341-.48-.479 0-1.011.054-1.543.16-.798.16-1.49.48-2.288.799l-.106.053c-.426.16-.798.479-1.224.691-.32.266-.692.532-1.117.692l-.266.16.16-.32c.212-.478.265-.691.319-.904.053-.053.053-.16.106-.32v-.159c-.266-.372-1.65-.479-2.394-.585h-.373c-.212-.053-.372.053-.532.213-.16.106-.212.266-.266.425-1.117 2.66-2.394 5.906-3.511 8.78-.373.85-.692 1.648-.958 2.393-.904 2.235-1.756 4.576-2.554 6.81a76.936 76.936 0 0 1-1.17 3.193c-.213.638-.479 1.277-.692 1.915-.106.32-.32.639-.425.958-.054.16-.107.319-.054.425 0 .054.054.107.16.107.106.053.266.053.479.053h2.5c.213 0 .266-.053.32-.266 0-.053.053-.106.053-.16.904-2.181 1.809-4.362 2.66-6.757l.053-.106c.053-.213.16-.426.266-.692.213-.479.426-1.01.639-1.543.213-.585.425-1.223.745-1.809.212-.478.425-.904.638-1.276.479-1.118.958-2.022 1.49-3.033 1.17-1.969 2.713-4.256 5.054-5.693.639-.372 2.288-1.17 3.618-1.17 1.011 0 1.65.478 1.756 1.33.16.691 0 1.17-.16 1.809l-.053.212c-.479 1.703-.851 2.927-1.277 4.097-.532 1.33-1.064 2.714-1.596 4.044-.585 1.596-1.17 3.139-1.756 4.735-.372.904-1.862 4.682-2.288 5.746l-.053.053c-.053.053-.106.266-.106.373.053 0 .16.053.266.053.106 0 .16-.053.213-.053h.213c.372.053.744.053 1.064.053h1.277c.106 0 .16-.053.212-.16 3.14-7.715 5.534-13.141 6.757-15.376.798-1.436 1.862-2.82 3.352-4.15 1.383-1.277 3.033-1.968 4.629-1.968.798 0 1.436.266 1.756.744.638.958.16 2.501-.32 3.671-.16.426-.372.958-.532 1.384-.212.585-.425 1.17-.691 1.756-.692 1.542-1.224 2.873-1.65 4.15-.106.212-.212.425-.266.691-.425 1.117-.85 2.341-1.117 3.405-.266 1.118-.532 2.394-.266 3.565.585 2.394 2.98 3.245 5.055 3.245h.053c1.968 0 3.67-1.33 5.054-2.607a31.101 31.101 0 0 0 4.203-4.788c.107-.213.266-.372.373-.532.425-.585.904-1.224 1.223-1.862.107-.16.213-.32.32-.532.425-.639 1.064-1.543 1.117-2.341.053-.532-.106-.905-.479-1.17z"/>
    <path d="M159.586 132.006c.054-.532-.106-.905-.478-1.17-.586-.373-1.011-.426-1.384-.16-.372.212-.691.691-1.064 1.33l-.106.16c-.266.372-.48.744-.745 1.117-.213.266-.373.532-.585.798-.958 1.543-2.022 3.086-3.246 4.416-.958 1.01-2.022 2.553-3.511 2.34-2.448-.319-1.437-3.777-.958-5.32.213-.585.426-1.224.638-1.862v-.053c.107-.213.16-.426.213-.585.639-1.916 3.299-8.673 3.99-10.216a74.381 74.381 0 0 0 1.384-3.245c.053-.16.053-.32 0-.373 0-.053-.107-.106-.266-.16-.266-.052-.426-.052-.585-.052-.16 0-.32 0-.532-.054-.373-.053-.745-.106-1.011-.106-.532 0-.692.106-.745.213a2.86 2.86 0 0 0-.32.745l-.159.319a115.932 115.932 0 0 0-2.767 6.597l-.425 1.011c-1.064 2.82-2.022 5.48-2.82 8.194-.639 2.128-.905 5 .638 6.757 1.543 1.755 3.565 1.649 5.374 1.01 1.969-.691 3.618-2.34 4.788-3.937 1.224-1.596 2.288-3.085 3.3-4.841.052-.16.159-.32.318-.532.426-.639 1.011-1.543 1.064-2.341zm-5.799-20.75a2.47 2.47 0 0 0-2.181 2.767 2.508 2.508 0 0 0 2.766 2.18c1.33-.159 2.288-1.436 2.129-2.766-.16-1.383-1.384-2.34-2.714-2.181z"/>
  </g>
</svg>
